<svg width="48" height="48" viewBox="0 0 48 48" fill="none" xmlns="http://www.w3.org/2000/svg">
<circle cx="24" cy="24" r="24" fill="#00C807"/>
<path d="M19.2526 30.4944L19.9774 30.917C21.1881 31.623 22.5641 32 24 32C28.4183 32 32 28.4183 32 24C32 19.5817 28.4183 16 24 16C19.5817 16 16 19.5817 16 24C16 25.4363 16.3772 26.8128 17.0837 28.0238L17.5061 28.7478L16.8526 31.1494L19.2526 30.4944ZM14.0042 34L15.3561 29.0315C14.494 27.5536 14 25.8345 14 24C14 18.4772 18.4772 14 24 14C29.5228 14 34 18.4772 34 24C34 29.5228 29.5228 34 24 34C22.1661 34 20.4475 33.5064 18.9699 32.6447L14.0042 34ZM20.3913 19.3083C20.5252 19.2989 20.6596 19.2975 20.7936 19.304C20.8478 19.3076 20.9017 19.3138 20.9556 19.3201C21.1149 19.3385 21.29 19.4355 21.3489 19.5689C21.6472 20.2454 21.9367 20.9257 22.2172 21.6096C22.2791 21.7606 22.2418 21.9563 22.124 22.1457C22.0642 22.2428 21.9703 22.379 21.8615 22.5183C21.7484 22.663 21.505 22.9291 21.505 22.9291C21.505 22.9291 21.4064 23.0473 21.4436 23.1944C21.4581 23.25 21.5042 23.331 21.5461 23.3991C21.5693 23.4368 21.5908 23.4705 21.6048 23.4938C21.8607 23.9211 22.2047 24.3543 22.6249 24.7616C22.7453 24.8783 22.8621 24.9974 22.9877 25.108C23.456 25.5209 23.9858 25.8583 24.558 26.1082L24.5631 26.1105C24.6476 26.1469 24.691 26.1668 24.8147 26.2193C24.8771 26.2457 24.9409 26.2685 25.0064 26.2858C25.0301 26.292 25.0544 26.2955 25.0788 26.2972C25.2405 26.3069 25.334 26.2032 25.3739 26.1555C26.0974 25.279 26.1636 25.2218 26.1686 25.2222V25.2238C26.2637 25.1236 26.4132 25.0888 26.5466 25.097C26.6075 25.1007 26.6681 25.1124 26.7235 25.1377C27.2553 25.3803 28.1248 25.7587 28.1248 25.7587L28.7063 26.0201C28.8037 26.0671 28.8926 26.1778 28.8969 26.2854C28.8995 26.3523 28.9067 26.4603 28.8828 26.6579C28.8515 26.9166 28.7728 27.2281 28.6946 27.3913C28.6396 27.5058 28.5684 27.6074 28.4856 27.6934C28.3733 27.81 28.2899 27.8808 28.1549 27.9814C28.0727 28.0426 28.0301 28.0714 28.0301 28.0714C27.8912 28.159 27.8129 28.2028 27.6474 28.2909C27.39 28.428 27.1056 28.5068 26.8143 28.5218C26.6286 28.5313 26.4434 28.5447 26.2579 28.5347C26.2497 28.5342 25.6897 28.4482 25.6897 28.4482C24.2678 28.0742 22.9528 27.3736 21.8494 26.402C21.6238 26.2034 21.4145 25.9885 21.201 25.7759C20.3119 24.8908 19.6388 23.9364 19.2307 23.0336C19.0295 22.5884 18.902 22.1116 18.9 21.621C18.8963 21.0141 19.095 20.4232 19.4647 19.9419C19.5376 19.847 19.6068 19.7486 19.7261 19.6359C19.8525 19.5165 19.9329 19.4524 20.0196 19.4081C20.1351 19.349 20.262 19.3174 20.3913 19.3083Z" fill="white"/>
</svg>
