<svg width="48" height="48" viewBox="0 0 48 48" fill="none" xmlns="http://www.w3.org/2000/svg">
<circle cx="24" cy="24" r="24" fill="#0EA982"/>
<path d="M33.6495 23.6885C33.8703 24.1811 34.0105 24.7077 34.0678 25.2449C34.123 25.782 34.0954 26.3256 33.9807 26.8543C33.8682 27.383 33.6729 27.8904 33.4011 28.3576C33.2227 28.6697 33.0125 28.9627 32.7705 29.2323C32.5305 29.4999 32.263 29.7419 31.9721 29.9543C31.6791 30.1666 31.367 30.3449 31.0358 30.4914C30.7067 30.6358 30.3627 30.7462 30.0102 30.8184C29.8446 31.3322 29.5983 31.8185 29.2798 32.2559C28.9635 32.6933 28.5792 33.0776 28.1418 33.3939C27.7044 33.7124 27.2203 33.9587 26.7064 34.1243C26.1926 34.2921 25.6554 34.3749 25.114 34.3749C24.7552 34.377 24.3942 34.3388 24.0418 34.2666C23.6914 34.1923 23.3475 34.0797 23.0183 33.9332C22.6892 33.7867 22.3771 33.6041 22.0862 33.3918C21.7975 33.1795 21.5299 32.9353 21.2921 32.6657C20.7613 32.7803 20.2178 32.8079 19.6806 32.7527C19.1434 32.6954 18.6168 32.5552 18.1221 32.3344C17.6295 32.1157 17.173 31.8185 16.7717 31.4554C16.3704 31.0923 16.0286 30.6677 15.7589 30.2006C15.5784 29.8884 15.4298 29.5593 15.3173 29.2175C15.2048 28.8756 15.1304 28.5232 15.0922 28.1643C15.054 27.8076 15.0561 27.4467 15.0943 27.0879C15.1326 26.7311 15.2111 26.3787 15.3237 26.0368C14.9627 25.6355 14.6654 25.179 14.4446 24.6864C14.2259 24.1917 14.0837 23.6673 14.0285 23.1301C13.9711 22.5929 14.0009 22.0494 14.1134 21.5207C14.2259 20.992 14.4213 20.4845 14.693 20.0174C14.8714 19.7053 15.0816 19.4102 15.3215 19.1426C15.5615 18.8751 15.8311 18.633 16.122 18.4207C16.4129 18.2084 16.7271 18.0279 17.0562 17.8835C17.3875 17.737 17.7314 17.6287 18.0839 17.5565C18.2495 17.0406 18.4958 16.5565 18.8122 16.1191C19.1307 15.6817 19.515 15.2974 19.9524 14.9789C20.3898 14.6625 20.8739 14.4162 21.3877 14.2485C21.9015 14.0829 22.4387 13.998 22.9801 14.0001C23.339 13.998 23.6999 14.0341 24.0524 14.1084C24.4048 14.1827 24.7488 14.2931 25.0779 14.4396C25.407 14.5882 25.7191 14.7687 26.01 14.981C26.3009 15.1955 26.5684 15.4375 26.8062 15.7072C27.3349 15.5947 27.8785 15.5671 28.4157 15.6223C28.9529 15.6775 29.4773 15.8197 29.972 16.0384C30.4646 16.2592 30.9211 16.5544 31.3224 16.9174C31.7237 17.2784 32.0655 17.7009 32.3352 18.1702C32.5157 18.4802 32.6643 18.8093 32.7768 19.1532C32.8894 19.4951 32.9658 19.8475 33.0019 20.2064C33.0401 20.5652 33.0401 20.9262 32.9998 21.285C32.9616 21.6438 32.883 21.9963 32.7705 22.3381C33.1335 22.7394 33.4287 23.1938 33.6495 23.6885ZM26.5748 32.7527C27.0377 32.5616 27.4581 32.2792 27.8127 31.9246C28.1672 31.5701 28.4496 31.1496 28.6407 30.6847C28.8318 30.2218 28.9316 29.7249 28.9316 29.2239V24.489C28.9302 24.4847 28.9288 24.4798 28.9274 24.4741C28.926 24.4699 28.9238 24.4656 28.921 24.4614C28.9182 24.4571 28.9146 24.4536 28.9104 24.4508C28.9061 24.4465 28.9019 24.4437 28.8976 24.4423L27.1842 23.4528V29.1729C27.1842 29.2302 27.1757 29.2897 27.1608 29.3449C27.146 29.4022 27.1247 29.4553 27.095 29.5062C27.0653 29.5572 27.0313 29.6039 26.9888 29.6443C26.9476 29.6854 26.9012 29.7211 26.8508 29.7504L22.7933 32.0924C22.7593 32.1136 22.702 32.1433 22.6723 32.1603C22.84 32.3026 23.0226 32.4278 23.2137 32.5383C23.4069 32.6487 23.6065 32.7421 23.8146 32.8185C24.0226 32.8928 24.2371 32.9502 24.4537 32.9884C24.6724 33.0266 24.8932 33.0457 25.114 33.0457C25.6151 33.0457 26.1119 32.9459 26.5748 32.7527ZM16.9119 29.5381C17.1645 29.9734 17.4979 30.3513 17.8949 30.6571C18.2941 30.9628 18.7463 31.1857 19.2305 31.3153C19.7146 31.4448 20.2199 31.4788 20.7167 31.4129C21.2136 31.3471 21.6913 31.1857 22.1266 30.9352L26.2287 28.5678L26.2393 28.5571C26.2422 28.5543 26.2443 28.5501 26.2457 28.5444C26.2485 28.5402 26.2507 28.5359 26.2521 28.5317V26.5358L21.3006 29.4001C21.2497 29.4298 21.1966 29.451 21.1414 29.468C21.0841 29.4829 21.0267 29.4893 20.9673 29.4893C20.9099 29.4893 20.8526 29.4829 20.7953 29.468C20.7401 29.451 20.6849 29.4298 20.6339 29.4001L16.5764 27.056C16.5403 27.0348 16.4872 27.0029 16.4575 26.9838C16.4193 27.2025 16.4001 27.4233 16.4001 27.6441C16.4001 27.865 16.4214 28.0858 16.4596 28.3045C16.4978 28.5211 16.5573 28.7355 16.6316 28.9436C16.708 29.1517 16.8014 29.3512 16.9119 29.5423V29.5381ZM15.846 20.6841C15.5954 21.1194 15.4341 21.5992 15.3682 22.0961C15.3024 22.5929 15.3364 23.0961 15.4659 23.5824C15.5954 24.0665 15.8184 24.5187 16.1241 24.9179C16.4299 25.3149 16.8099 25.6483 17.2431 25.8988L21.3431 28.2684C21.3473 28.2698 21.3523 28.2712 21.358 28.2726H21.3728C21.3785 28.2726 21.3834 28.2712 21.3877 28.2684C21.3919 28.267 21.3962 28.2648 21.4004 28.262L23.1203 27.2683L18.1688 24.4104C18.12 24.3807 18.0733 24.3446 18.0308 24.3043C17.9897 24.263 17.954 24.2166 17.9246 24.1663C17.897 24.1153 17.8737 24.0622 17.8588 24.0049C17.844 23.9497 17.8355 23.8924 17.8376 23.8329V19.011C17.6295 19.0874 17.4278 19.1808 17.2367 19.2912C17.0456 19.4038 16.8651 19.5312 16.6953 19.6734C16.5275 19.8157 16.3704 19.9728 16.2282 20.1427C16.0859 20.3104 15.9606 20.493 15.8502 20.6841H15.846ZM29.9296 23.9624C29.9805 23.9921 30.0272 24.0261 30.0697 24.0686C30.11 24.1089 30.1461 24.1556 30.1758 24.2066C30.2035 24.2576 30.2268 24.3128 30.2417 24.368C30.2544 24.4253 30.2629 24.4826 30.2608 24.5421V29.364C30.9423 29.1134 31.5369 28.6739 31.9764 28.0964C32.418 27.5189 32.6834 26.8288 32.745 26.1069C32.8066 25.385 32.6622 24.6588 32.3267 24.0155C31.9912 23.3722 31.4795 22.8371 30.851 22.4761L26.751 20.1066C26.7468 20.1052 26.7418 20.1037 26.7362 20.1023H26.7213C26.7171 20.1037 26.7121 20.1052 26.7064 20.1066C26.7022 20.108 26.698 20.1101 26.6937 20.1129L24.9824 21.1024L29.9338 23.9624H29.9296ZM31.6388 21.3933H31.6366V21.3954L31.6388 21.3933ZM31.6366 21.3912C31.7598 20.6777 31.677 19.9431 31.3967 19.2743C31.1186 18.6054 30.6536 18.03 30.0591 17.6139C29.4646 17.1998 28.7639 16.962 28.0399 16.9302C27.3137 16.9005 26.596 17.0767 25.9676 17.4376L21.8675 19.8051C21.8633 19.8079 21.8598 19.8114 21.8569 19.8157L21.8484 19.8284C21.847 19.8327 21.8456 19.8376 21.8442 19.8433C21.8428 19.8475 21.8421 19.8525 21.8421 19.8582V21.837L26.7935 18.977C26.8445 18.9473 26.8997 18.926 26.9549 18.9091C27.0122 18.8942 27.0695 18.8878 27.1268 18.8878C27.1863 18.8878 27.2436 18.8942 27.301 18.9091C27.3562 18.926 27.4092 18.9473 27.4602 18.977L31.5177 21.3211C31.5538 21.3423 31.6069 21.372 31.6366 21.3912ZM20.9078 19.1999C20.9078 19.1426 20.9163 19.0853 20.9312 19.028C20.946 18.9728 20.9673 18.9176 20.997 18.8666C21.0267 18.8178 21.0607 18.7711 21.1032 18.7286C21.1435 18.6882 21.1902 18.6521 21.2412 18.6245L25.2987 16.2826C25.3369 16.2592 25.39 16.2295 25.4197 16.2146C24.8635 15.7497 24.184 15.4524 23.4642 15.3611C22.7444 15.2677 22.014 15.3823 21.358 15.6902C20.6997 15.9981 20.1435 16.4885 19.7549 17.1C19.3663 17.7137 19.1604 18.4228 19.1604 19.149V23.8839C19.1618 23.8895 19.1632 23.8945 19.1646 23.8987C19.166 23.903 19.1682 23.9072 19.171 23.9115C19.1738 23.9157 19.1774 23.92 19.1816 23.9242C19.1844 23.927 19.1887 23.9299 19.1944 23.9327L20.9078 24.9221V19.1999ZM21.8378 25.4572L24.0439 26.7311L26.2499 25.4572V22.9114L24.046 21.6374L21.8399 22.9114L21.8378 25.4572Z" fill="white"/>
</svg>
