<svg width="48" height="48" viewBox="0 0 48 48" fill="none" xmlns="http://www.w3.org/2000/svg">
<circle cx="24" cy="24" r="24" transform="matrix(-1 0 0 1 48 0)" fill="white"/>
<mask id="mask0_391_147" style="mask-type:luminance" maskUnits="userSpaceOnUse" x="14" y="10" width="20" height="28">
<path d="M21.5014 10H32.1252C33.1563 10 34 10.8437 34 11.8748V35.6222C34 36.6534 33.1563 37.497 32.1252 37.497H15.877C14.8458 37.497 14.0022 36.6534 14.0022 35.6222V17.4992L21.5014 10Z" fill="white"/>
</mask>
<g mask="url(#mask0_391_147)">
<path d="M21.5009 10H32.1247C33.1559 10 33.9995 10.8437 33.9995 11.8748V35.6222C33.9995 36.6534 33.1559 37.497 32.1247 37.497H15.8765C14.8453 37.497 14.0017 36.6534 14.0017 35.6222V17.4992L18.3762 14.3745L21.5009 10Z" fill="#0F9D58"/>
</g>
<mask id="mask1_391_147" style="mask-type:luminance" maskUnits="userSpaceOnUse" x="14" y="10" width="20" height="28">
<path d="M21.5014 10H32.1252C33.1563 10 34 10.8437 34 11.8748V35.6222C34 36.6534 33.1563 37.497 32.1252 37.497H15.877C14.8458 37.497 14.0022 36.6534 14.0022 35.6222V17.4992L21.5014 10Z" fill="white"/>
</mask>
<g mask="url(#mask1_391_147)">
<path d="M28.9995 23.4359V32.4974H19.0006V23.4359H28.9995ZM24.625 31.2476H27.7496V29.6852H24.625V31.2476ZM24.625 28.7478H27.7496V27.1855H24.625V28.7478ZM24.625 26.2481H27.7496V24.6858H24.625V26.2481ZM20.2505 31.2476H23.3751V29.6852H20.2505V31.2476ZM20.2505 28.7478H23.3751V27.1855H20.2505V28.7478ZM20.2505 26.2481H23.3751V24.6858H20.2505V26.2481Z" fill="#F1F1F1"/>
</g>
<mask id="mask2_391_147" style="mask-type:luminance" maskUnits="userSpaceOnUse" x="14" y="10" width="20" height="28">
<path d="M21.5014 10H32.1252C33.1563 10 34 10.8437 34 11.8748V35.6222C34 36.6534 33.1563 37.497 32.1252 37.497H15.877C14.8458 37.497 14.0022 36.6534 14.0022 35.6222V17.4992L21.5014 10Z" fill="white"/>
</mask>
<g mask="url(#mask2_391_147)">
<path d="M20.9531 16.9509L14.0023 23.9002V17.4993L20.9531 16.9509Z" fill="url(#paint0_linear_391_147)"/>
</g>
<mask id="mask3_391_147" style="mask-type:luminance" maskUnits="userSpaceOnUse" x="14" y="10" width="20" height="28">
<path d="M21.5014 10H32.1252C33.1563 10 34 10.8437 34 11.8748V35.6222C34 36.6534 33.1563 37.497 32.1252 37.497H15.877C14.8458 37.497 14.0022 36.6534 14.0022 35.6222V17.4992L21.5014 10Z" fill="white"/>
</mask>
<g mask="url(#mask3_391_147)">
<path d="M21.5 10V15.6244C21.5 16.6602 20.661 17.4992 19.6252 17.4992H14.0008L21.5 10Z" fill="#87CEAC"/>
</g>
<mask id="mask4_391_147" style="mask-type:luminance" maskUnits="userSpaceOnUse" x="14" y="10" width="20" height="28">
<path d="M21.5014 10H32.1252C33.1563 10 34 10.8437 34 11.8748V35.6222C34 36.6534 33.1563 37.497 32.1252 37.497H15.877C14.8458 37.497 14.0022 36.6534 14.0022 35.6222V17.4992L21.5014 10Z" fill="white"/>
</mask>
<g mask="url(#mask4_391_147)">
<path d="M32.1247 10C33.1559 10 33.9995 10.8437 33.9995 11.8748V12.031C33.9995 10.9999 33.1559 10.1562 32.1247 10.1562H21.5009V10H32.1247Z" fill="white" fill-opacity="0.2"/>
</g>
<mask id="mask5_391_147" style="mask-type:luminance" maskUnits="userSpaceOnUse" x="14" y="10" width="20" height="28">
<path d="M21.5014 10H32.1252C33.1563 10 34 10.8437 34 11.8748V35.6222C34 36.6534 33.1563 37.497 32.1252 37.497H15.877C14.8458 37.497 14.0022 36.6534 14.0022 35.6222V17.4992L21.5014 10Z" fill="white"/>
</mask>
<g mask="url(#mask5_391_147)">
<path d="M15.8765 37.341H32.1247C33.1559 37.341 33.9995 36.4973 33.9995 35.4662V35.6224C33.9995 36.6536 33.1559 37.4972 32.1247 37.4972H15.8765C14.8453 37.4972 14.0017 36.6536 14.0017 35.6224V35.4662C14.0017 36.4973 14.8453 37.341 15.8765 37.341Z" fill="#263238" fill-opacity="0.2"/>
</g>
<mask id="mask6_391_147" style="mask-type:luminance" maskUnits="userSpaceOnUse" x="14" y="10" width="20" height="28">
<path d="M21.5014 10H32.1252C33.1563 10 34 10.8437 34 11.8748V35.6222C34 36.6534 33.1563 37.497 32.1252 37.497H15.877C14.8458 37.497 14.0022 36.6534 14.0022 35.6222V17.4992L21.5014 10Z" fill="white"/>
</mask>
<g mask="url(#mask6_391_147)">
<path d="M19.6252 17.4992C20.661 17.4992 21.5 16.6602 21.5 15.6244V15.7806C21.5 16.8164 20.661 17.6554 19.6252 17.6554H14.0008V17.4992H19.6252Z" fill="#263238" fill-opacity="0.1"/>
</g>
<path d="M21.4994 10H32.1232C33.1544 10 33.998 10.8437 33.998 11.8748V35.6222C33.998 36.6534 33.1544 37.497 32.1232 37.497H15.875C14.8439 37.497 14.0002 36.6534 14.0002 35.6222V17.4992L21.4994 10Z" fill="url(#paint1_radial_391_147)"/>
<defs>
<linearGradient id="paint0_linear_391_147" x1="-326.625" y1="76.6179" x2="-326.625" y2="711.972" gradientUnits="userSpaceOnUse">
<stop stop-color="#263238" stop-opacity="0.2"/>
<stop offset="1" stop-color="#263238" stop-opacity="0.02"/>
</linearGradient>
<radialGradient id="paint1_radial_391_147" cx="0" cy="0" r="1" gradientUnits="userSpaceOnUse" gradientTransform="translate(-29.3561 64.3462) rotate(180) scale(3224.62 3224.62)">
<stop stop-color="white" stop-opacity="0.1"/>
<stop offset="1" stop-color="white" stop-opacity="0"/>
</radialGradient>
</defs>
</svg>
