<svg width="48" height="48" viewBox="0 0 48 48" fill="none" xmlns="http://www.w3.org/2000/svg">
<circle cx="24" cy="24" r="24" fill="white"/>
<path d="M29.2637 18.737L24.5269 18.2107L18.7373 18.737L18.2109 24.0002L18.7372 29.2635L24.0005 29.9214L29.2637 29.2635L29.79 23.8687L29.2637 18.737Z" fill="white"/>
<path d="M20.8951 26.9026C20.5017 26.6368 20.2293 26.2487 20.0806 25.7355L20.9938 25.3592C21.0767 25.675 21.2214 25.9197 21.428 26.0934C21.6333 26.2671 21.8833 26.3526 22.1754 26.3526C22.4741 26.3526 22.7307 26.2618 22.9451 26.0802C23.1595 25.8986 23.2675 25.667 23.2675 25.3868C23.2675 25.1 23.1543 24.8657 22.928 24.6842C22.7017 24.5027 22.4175 24.4118 22.078 24.4118H21.5504V23.5079H22.024C22.3161 23.5079 22.5622 23.429 22.7622 23.2711C22.9622 23.1132 23.0622 22.8974 23.0622 22.6224C23.0622 22.3777 22.9727 22.1829 22.7938 22.0369C22.6149 21.8909 22.3885 21.8172 22.1135 21.8172C21.8451 21.8172 21.6319 21.8883 21.474 22.0317C21.3161 22.1751 21.2016 22.3514 21.1293 22.5593L20.2254 22.183C20.3451 21.8435 20.5649 21.5435 20.8872 21.2843C21.2096 21.0251 21.6214 20.8948 22.1214 20.8948C22.4911 20.8948 22.824 20.9659 23.1188 21.1093C23.4135 21.2527 23.6451 21.4514 23.8122 21.704C23.9793 21.9579 24.0622 22.2422 24.0622 22.5579C24.0622 22.8803 23.9846 23.1526 23.8293 23.3763C23.674 23.6 23.4832 23.771 23.2569 23.8908V23.9447C23.5556 24.0697 23.799 24.2605 23.9911 24.5171C24.1819 24.7737 24.2779 25.0803 24.2779 25.4382C24.2779 25.7961 24.1871 26.1158 24.0055 26.3961C23.8239 26.6764 23.5726 26.8974 23.2542 27.0579C22.9345 27.2184 22.5753 27.3 22.1766 27.3C21.7148 27.3013 21.2885 27.1684 20.8951 26.9026Z" fill="#1A73E8"/>
<path d="M26.5002 22.3711L25.5028 23.0961L25.0015 22.3356L26.8002 21.0382H27.4897V27.158H26.5002V22.3711Z" fill="#1A73E8"/>
<path d="M29.2635 34.0001L34.0004 29.2633L31.632 28.2107L29.2635 29.2633L28.2109 31.6317L29.2635 34.0001Z" fill="#EA4335"/>
<path d="M17.6836 31.6317L18.7362 34.0001H29.2626V29.2633H18.7362L17.6836 31.6317Z" fill="#34A853"/>
<path d="M15.5789 14C14.7066 14 14 14.7066 14 15.5789V29.2632L16.3684 30.3158L18.7368 29.2632V18.7368H29.2632L30.3158 16.3684L29.2633 14H15.5789Z" fill="#4285F4"/>
<path d="M14 29.2633V32.4212C14 33.2936 14.7066 34.0001 15.5789 34.0001H18.7368V29.2633H14Z" fill="#188038"/>
<path d="M29.2642 18.7368V29.2632H34.001V18.7368L31.6326 17.6842L29.2642 18.7368Z" fill="#FBBC04"/>
<path d="M34.001 18.7368V15.5789C34.001 14.7065 33.2944 14 32.4221 14H29.2642V18.7368H34.001Z" fill="#1967D2"/>
</svg>
